<?xml version="1.0" encoding="utf-8"?>
<!-- Generator: Adobe Illustrator 23.0.1, SVG Export Plug-In . SVG Version: 6.00 Build 0)  -->
<svg version="1.1" xmlns="http://www.w3.org/2000/svg" xmlns:xlink="http://www.w3.org/1999/xlink" x="0px" y="0px"
	 viewBox="0 0 511.9 511.79" style="enable-background:new 0 0 511.9 511.79;" xml:space="preserve">
<style type="text/css">
	.st0{fill:none;stroke:#000000;stroke-width:20;stroke-miterlimit:10;}
	.st1{fill:#010101;}
	.st2{fill:#020202;}
</style>
<g id="Layer_1">
	<path d="M780.15,338.77c0-54.96,0-109.92,0-164.88c0.23-0.6,0.54-1.18,0.69-1.8c2.92-12.14,13.66-20.74,26.16-20.75
		c52.13-0.03,104.27-0.04,156.4,0c14.76,0.01,26.71,11.95,26.73,26.72c0.05,52.2,0.04,104.4,0,156.61
		c-0.01,12.48-8.93,23.35-21.13,26.07c-0.75,0.17-1.49,0.39-2.23,0.59c-54.69,0-109.38,0-164.06,0c-0.33-0.16-0.65-0.38-1.01-0.47
		c-11.21-2.85-18.24-9.86-21.08-21.08C780.53,339.43,780.31,339.11,780.15,338.77z M948,240.32c0.21,0.77,0.39,1.42,0.55,2.07
		c3.55,13.75,2.72,27.23-2.97,40.26c-17.82,40.82-72.09,51.9-105.02,21.49c-14.77-13.64-21.7-30.46-20.24-50.56
		c0.32-4.44,1.32-8.84,2.02-13.29c-6.1,0-12.36,0-18.82,0c0,0.73,0,1.4,0,2.06c0,28.5,0,56.99,0,85.49c0,6.12,3.19,9.28,9.38,9.28
		c48.04,0,96.08,0,144.12,0c6.09,0,9.32-3.26,9.32-9.38c0-28.5,0-56.99,0-85.49c0-0.66,0-1.32,0-1.94
		C960.12,240.32,954.13,240.32,948,240.32z M885.35,297.06c3.31-0.45,6.67-0.64,9.91-1.39c24.98-5.77,40.59-32.82,27.8-58.17
		c-8.31-16.47-26.16-24.71-45.34-21.85c-18.01,2.68-40.07,21.36-33.39,50.03C848.55,283.79,866,296.84,885.35,297.06z
		 M944.89,216.13c4.03,0,8.07,0.04,12.1-0.01c5.34-0.07,9.31-4.03,9.35-9.37c0.05-7.52,0.05-15.04,0-22.56
		c-0.03-5.4-4.08-9.44-9.49-9.47c-7.86-0.04-15.72-0.04-23.58,0c-5.52,0.03-9.53,4.07-9.56,9.61c-0.04,7.38-0.04,14.77,0,22.15
		c0.03,5.71,3.96,9.61,9.7,9.65C937.24,216.16,941.06,216.13,944.89,216.13z"/>
	<path class="st0" d="M1092.46,253.09c-0.03,114.8-93.24,207.39-208.59,207.22c-113.23-0.17-206.12-93.3-206.07-206.61
		C677.83,138.56,770.19,45.82,885,45.63C999.22,45.43,1092.49,138.71,1092.46,253.09z"/>
</g>
<g id="Layer_3">
	<g>
		<path class="st1" d="M1458.02,307.81c-22.5-2.55-39.78-15.57-43.66-32.75c6.84,1,13.59,0.99,20.01-0.77
			c-3.75-1.51-7.85-2.75-11.53-4.76c-3.7-2.03-7.28-4.51-10.33-7.4c-3.11-2.95-5.89-6.41-8.12-10.07c-2.18-3.59-3.88-7.6-5.05-11.64
			c-1.18-4.08-1.44-8.43-1.81-12.79c6.72,3.15,13.41,5.19,21.25,5.47c-10.36-7.44-16.96-16.85-19.61-28.76
			c-2.63-11.84-0.92-23.15,5.14-34.01c25.49,30.01,57.77,46.5,96.79,49.21c-0.19-4.75-0.8-9.31-0.48-13.8
			c1.26-17.57,9.82-30.78,25.39-38.83c18.68-9.66,39.34-6.25,54.64,8.3c0.98,0.93,1.79,1.14,3.13,0.83
			c9.02-2.02,17.58-5.21,25.67-9.68c0.61-0.34,1.25-0.6,2.08-0.99c-1.93,8.69-9.64,18.59-19.85,25.5
			c9.08-0.85,17.33-3.48,25.45-6.64c0.13,0.17,0.26,0.33,0.39,0.5c-1.66,2.2-3.09,4.63-5.02,6.56c-5.33,5.33-10.89,10.43-16.28,15.7
			c-0.69,0.68-1.34,1.82-1.33,2.74c0.52,35.34-10.66,66.55-33.41,93.49c-18.13,21.47-41.14,35.25-68.53,41.6
			c-16.56,3.84-33.29,4.61-50.16,2.37c-19.16-2.55-36.9-9.02-53.28-19.25c-0.16-0.1-0.29-0.26-0.67-0.6
			C1414.45,329.71,1437.33,323.45,1458.02,307.81z"/>
		<path class="st0" d="M1700.96,256.09c-0.03,114.8-93.24,207.39-208.59,207.22c-113.23-0.17-206.12-93.3-206.07-206.61
			c0.04-115.14,92.39-207.88,207.21-208.07C1607.72,48.43,1700.99,141.71,1700.96,256.09z"/>
	</g>
</g>
<g id="Layer_2">
	<g>
		<path class="st2" d="M278.4,260.64c0,9.76,0,18.83,0,27.89c0,27.54-0.12,55.08,0.09,82.62c0.05,6.14-1.72,8.89-8.34,8.72
			c-14.2-0.37-28.43-0.35-42.64,0c-6.21,0.15-8.07-2.2-8.03-8.19c0.19-34.42,0.09-68.85,0.09-103.27c0-2.39,0-4.77,0-7.76
			c-5.97,0-11.26-0.09-16.54,0.03c-4.85,0.1-7.38-1.59-7.28-6.97c0.24-12.43,0.21-24.87,0.01-37.31c-0.08-5.18,2.05-7.28,7.13-7.11
			c5.29,0.18,10.58,0.04,16.47,0.04c0-7.57-0.06-14.61,0.01-21.65c0.33-35.28,21-55.71,56.23-55.6c10.88,0.03,21.77,0.17,32.65,0.06
			c5.05-0.05,7.31,2.07,7.26,7.15c-0.11,11.99-0.14,23.99,0.01,35.98c0.07,5.52-2.46,7.45-7.77,7.26
			c-7.32-0.26-14.66,0.07-21.98-0.11c-4.98-0.13-7.5,1.78-7.4,6.96c0.12,6.39,0.03,12.79,0.03,19.85c10.32,0,20.25,0.21,30.16-0.08
			c5.99-0.17,7.94,2.33,7.28,8.04c-1.46,12.56-2.75,25.15-3.96,37.74c-0.45,4.67-3.26,5.78-7.31,5.75
			C296.14,260.59,287.7,260.64,278.4,260.64z"/>
	</g>
	<g>
		<path class="st0" d="M467.01,252.65c-0.03,114.8-93.24,207.39-208.59,207.22C145.19,459.7,52.3,366.57,52.35,253.26
			c0.04-115.14,92.39-207.88,207.21-208.07C373.77,45,467.05,138.27,467.01,252.65z"/>
	</g>
	<g>
	</g>
	<g>
	</g>
	<g>
	</g>
	<g>
	</g>
	<g>
	</g>
	<g>
	</g>
	<g>
	</g>
	<g>
	</g>
	<g>
	</g>
	<g>
	</g>
	<g>
	</g>
	<g>
	</g>
	<g>
	</g>
	<g>
	</g>
	<g>
	</g>
</g>
</svg>
